<?xml version="1.0" encoding="utf-8"?>
<!-- Generator: Adobe Illustrator 19.2.1, SVG Export Plug-In . SVG Version: 6.00 Build 0)  -->
<svg version="1.1"
	 id="Layer_1" inkscape:version="0.45" sodipodi:docname="checkmark.svg" sodipodi:version="0.32" xmlns:cc="http://web.resource.org/cc/" xmlns:dc="http://purl.org/dc/elements/1.1/" xmlns:inkscape="http://www.inkscape.org/namespaces/inkscape" xmlns:rdf="http://www.w3.org/1999/02/22-rdf-syntax-ns#" xmlns:sodipodi="http://sodipodi.sourceforge.net/DTD/sodipodi-0.dtd" xmlns:svg="http://www.w3.org/2000/svg"
	 xmlns="http://www.w3.org/2000/svg" xmlns:xlink="http://www.w3.org/1999/xlink" x="0px" y="0px" viewBox="0 0 18 18"
	 style="enable-background:new 0 0 18 18;" xml:space="preserve">
<style type="text/css">
	.st0{fill:#2E4451;}
	.st1{opacity:0.2778;fill:#2E4451;enable-background:new    ;}
</style>
<path sodipodi:nodetypes="ccccccc" class="st0" d="M17.9,5.1c-2.1-1.4-3-2.6-3-2.6C11,4.7,7,12.7,7,12.7C5.1,10,3.2,9.3,3.2,9.3
	c-0.9,1.1-2.3,2.7-2.3,2.7c3.4,0.9,6.3,4.3,6.3,4.3C13.4,6.5,17.9,5.1,17.9,5.1z"/>
<path sodipodi:nodetypes="ccccccc" class="st1" d="M18.3,5.1c-2.1-1.4-3-2.6-3-2.6c-3.8,2.2-7.8,10.2-7.8,10.2
	C5.5,10,3.6,9.3,3.6,9.3c-0.9,1.1-2.3,2.7-2.3,2.7c3.4,0.9,6.3,4.3,6.3,4.3C13.8,6.5,18.3,5.1,18.3,5.1z"/>
</svg>
